<svg width="29" height="22" viewBox="0 0 29 22" fill="none" xmlns="http://www.w3.org/2000/svg">
<g id="Wishlist">
<path id="Vector" d="M7.53608 16.6371V20.5548H21.9121V16.3708M21.9121 7.72752V4.80733C21.9121 3.91553 21.5513 3.06026 20.909 2.42966C20.2666 1.79907 19.3955 1.44482 18.4871 1.44482H4.49258C3.71255 1.44839 2.96558 1.75446 2.41444 2.29639C1.8633 2.83831 1.55271 3.57212 1.55029 4.33791V7.10014H5.45348M7.53611 17.0163V4.33791C7.53368 3.57134 7.22241 2.83684 6.67028 2.29479C6.11815 1.75274 5.36999 1.4472 4.58916 1.44482M10.3773 5.94472H14.4368M10.3773 9.96621H16.0459M10.3773 14.6918H18.7078M25.5533 7.33935C24.9504 7.11047 24.2956 7.04628 23.6585 7.15356C23.0214 7.26085 22.4259 7.5356 21.9351 7.94865C21.4444 7.5356 20.8488 7.26085 20.2117 7.15356C19.5746 7.04628 18.9199 7.11047 18.317 7.33935C17.8795 7.50607 17.4797 7.75582 17.1405 8.07427C16.8014 8.39273 16.5295 8.77364 16.3403 9.19531C16.1512 9.61698 16.0486 10.0711 16.0383 10.5318C16.028 10.9924 16.1102 11.4505 16.2803 11.8799C16.9791 13.6492 21.9305 16.5017 21.9305 16.5017C22.1328 16.3889 26.882 13.6537 27.5808 11.8844C27.7518 11.4553 27.8351 10.9973 27.8258 10.5366C27.8165 10.0759 27.7147 9.62149 27.5264 9.19939C27.3381 8.77729 27.067 8.39574 26.7284 8.07659C26.3898 7.75743 25.9905 7.50692 25.5533 7.33935Z" stroke="#F4B5A4" stroke-width="1.911" stroke-miterlimit="10"/>
</g>
</svg>
