<svg width="25" height="25" viewBox="0 0 25 25" fill="none" xmlns="http://www.w3.org/2000/svg">
<g id="Cart">
<path id="Vector" d="M4.32902 6.18528H4.33021M4.33021 6.18528H23.0377C23.1138 6.18508 23.1891 6.20189 23.2579 6.2345C23.3267 6.26711 23.3874 6.3147 23.4355 6.37377C23.4836 6.43284 23.5179 6.50188 23.5358 6.5759C23.5538 6.64992 23.5549 6.727 23.5393 6.80154L21.7095 15.5396C21.6863 15.6507 21.6267 15.7509 21.5402 15.8245C21.4537 15.898 21.3452 15.9406 21.2318 15.9457H6.80855M4.33021 6.18528L6.77031 15.9457H6.80855M4.33021 6.18528L3.42607 2.56869C3.37611 2.37083 3.26159 2.1953 3.10065 2.06983C2.9397 1.94436 2.74153 1.87615 2.53746 1.87598H0.626465M6.80855 15.9457V18.2102C6.80791 18.3904 6.84294 18.5691 6.91162 18.7357C6.98031 18.9023 7.08128 19.0537 7.20873 19.1811C7.33618 19.3086 7.48759 19.4096 7.65423 19.4783C7.82087 19.547 7.99944 19.582 8.17968 19.5813H21.9054" stroke="#F4B5A4" stroke-width="1.911" stroke-miterlimit="10"/>
<g id="Vector_2">
<path d="M7.6094 24.1241C8.44054 24.1241 9.11431 23.4503 9.11431 22.6192C9.11431 21.788 8.44054 21.1143 7.6094 21.1143C6.77826 21.1143 6.10449 21.788 6.10449 22.6192C6.10449 23.4503 6.77826 24.1241 7.6094 24.1241Z" fill="#F4B5A4"/>
<path d="M18.3922 24.1241C19.2233 24.1241 19.8971 23.4503 19.8971 22.6192C19.8971 21.788 19.2233 21.1143 18.3922 21.1143C17.5611 21.1143 16.8873 21.788 16.8873 22.6192C16.8873 23.4503 17.5611 24.1241 18.3922 24.1241Z" fill="#F4B5A4"/>
</g>
</g>
</svg>
